<svg aria-hidden="true" style="position: absolute; width: 0; height: 0; overflow: hidden;" version="1.1" xmlns="http://www.w3.org/2000/svg" xmlns:xlink="http://www.w3.org/1999/xlink">
<defs>
<symbol id="icon-align-left" viewBox="0 0 32 32">
<path stroke-linejoin="round" stroke-linecap="round" stroke-miterlimit="4" stroke-width="2.2857" d="M22.666 13.334h-18.666M28 8h-24M28 18.666h-24M22.666 24h-18.666"></path>
</symbol>
<symbol id="icon-arrow-narrow-right" viewBox="0 0 32 32">
<path fill="none" stroke="#eac645" style="stroke: var(--color1, #eac645)" stroke-linejoin="round" stroke-linecap="round" stroke-miterlimit="4" stroke-width="3.2" d="M5.333 16h21.334M26.667 16l-8-8M26.667 16l-8 8"></path>
</symbol>
<symbol id="icon-dump" viewBox="0 0 32 32">
<path fill="none" stroke="#fff" style="stroke: var(--color2, #fff)" stroke-linejoin="round" stroke-linecap="round" stroke-miterlimit="4" stroke-width="2.9091" d="M12 4h8M4 8h24M25.334 8l-0.935 14.026c-0.141 2.103-0.211 3.156-0.665 3.953-0.405 0.703-0.997 1.259-1.707 1.61l-0.023 0.010c-0.828 0.4-1.881 0.4-3.99 0.4h-4.026c-2.109 0-3.162 0-3.99-0.4-0.734-0.361-1.326-0.917-1.721-1.601l-0.010-0.019c-0.454-0.797-0.524-1.85-0.665-3.953l-0.935-14.026M13.334 14v6.666M18.666 14v6.666"></path>
</symbol>
<symbol id="icon-lock-02" viewBox="0 0 32 32">
<path stroke-linejoin="round" stroke-linecap="round" stroke-miterlimit="4" stroke-width="2.2857" d="M22.666 14.666v-4c0-3.682-2.985-6.666-6.666-6.666s-6.666 2.985-6.666 6.666v0 4M10.4 28h11.2c2.24 0 3.36 0 4.216-0.435 0.756-0.391 1.358-0.992 1.738-1.726l0.011-0.022c0.435-0.856 0.435-1.976 0.435-4.216v-0.534c0-2.24 0-3.36-0.435-4.216-0.391-0.756-0.992-1.358-1.726-1.738l-0.022-0.011c-0.856-0.434-1.976-0.434-4.216-0.434h-11.2c-2.24 0-3.36 0-4.216 0.434-0.756 0.391-1.358 0.992-1.738 1.726l-0.011 0.022c-0.435 0.857-0.435 1.977-0.435 4.217v0.533c0 2.24 0 3.36 0.435 4.216 0.391 0.756 0.992 1.358 1.726 1.738l0.022 0.011c0.856 0.435 1.976 0.435 4.216 0.435z"></path>
</symbol>
<symbol id="icon-mail-02" viewBox="0 0 32 32">
<path stroke-linejoin="round" stroke-linecap="round" stroke-miterlimit="4" stroke-width="2.2857" d="M28.666 24l-8.857-8M12.191 16l-8.857 8M2.666 9.334l10.887 7.621c0.881 0.617 1.322 0.926 1.802 1.045 0.423 0.106 0.866 0.106 1.289 0 0.48-0.119 0.921-0.427 1.802-1.045l10.887-7.621M9.066 26.666h13.867c2.24 0 3.36 0 4.216-0.435 0.756-0.391 1.358-0.992 1.738-1.726l0.011-0.022c0.434-0.855 0.434-1.976 0.434-4.216v-8.533c0-2.24 0-3.36-0.434-4.217-0.391-0.756-0.992-1.357-1.726-1.737l-0.022-0.011c-0.857-0.435-1.977-0.435-4.217-0.435h-13.865c-2.24 0-3.36 0-4.216 0.435-0.756 0.391-1.358 0.992-1.738 1.726l-0.010 0.022c-0.434 0.855-0.434 1.975-0.434 4.216v8.533c0 2.24 0 3.36 0.434 4.217 0.391 0.756 0.992 1.357 1.726 1.737l0.022 0.011c0.856 0.435 1.977 0.435 4.217 0.435z"></path>
</symbol>
<symbol id="icon-user-fill" viewBox="0 0 32 32">
<path fill="#4f2ee8" style="fill: var(--color3, #4f2ee8)" d="M5.334 29.334c0.107-5.81 4.841-10.478 10.666-10.478s10.56 4.669 10.666 10.468l0 0.010h-21.332zM16 17.334c-0.001 0-0.001 0-0.002 0-4.417 0-7.998-3.581-7.998-7.998 0-0.001 0-0.001 0-0.002v0c0-0.001 0-0.001 0-0.002 0-4.417 3.581-7.998 7.998-7.998 0.001 0 0.001 0 0.002 0h-0c0 0 0.001 0 0.002 0 4.417 0 7.998 3.581 7.998 7.998 0 0.001 0 0.001 0 0.002v-0c0 0.001 0 0.001 0 0.002 0 4.417-3.581 7.998-7.998 7.998-0.001 0-0.001 0-0.002 0h0z"></path>
</symbol>
<symbol id="icon-Vector" viewBox="0 0 60 32">
<path fill="#fff" style="fill: var(--color2, #fff)" d="M3.168 3h53.668l-24.124 27.268c-0.659 0.769-1.627 1.258-2.71 1.272l-0.002 0c-1.083-0.015-2.050-0.503-2.704-1.267l-0.004-0.005-24.124-27.268z"></path>
</symbol>
<symbol id="icon-Vector-2" viewBox="0 0 55 32">
<path fill="#fff" style="fill: var(--color2, #fff)" d="M1.091 25.309l24.436-24.509c0.291-0.291 0.605-0.495 0.945-0.617s0.704-0.183 1.091-0.183 0.751 0.061 1.091 0.183c0.371 0.139 0.687 0.349 0.945 0.616l0.001 0.001 24.509 24.509c0.678 0.678 1.018 1.527 1.018 2.545s-0.364 1.891-1.091 2.618c-0.638 0.672-1.538 1.091-2.535 1.091-0.004 0-0.007 0-0.011-0h0.001c-0.003 0-0.007 0-0.010 0-0.998 0-1.897-0.418-2.534-1.089l-0.001-0.002-21.382-21.382-21.382 21.382c-0.678 0.678-1.513 1.018-2.508 1.018s-1.856-0.364-2.583-1.091c-0.672-0.638-1.091-1.538-1.091-2.535 0-0.004 0-0.007 0-0.011v0.001c0-0.003 0-0.007 0-0.010 0-0.998 0.418-1.897 1.089-2.534l0.002-0.001z"></path>
</symbol>
<symbol id="icon-x-close" viewBox="0 0 32 32">
<path stroke-linejoin="round" stroke-linecap="round" stroke-miterlimit="4" stroke-width="3.4286" d="M24 8l-16 16M8 8l16 16"></path>
</symbol>
</defs>
</svg>
