<svg aria-hidden="true" style="position: absolute; width: 0; height: 0; overflow: hidden;" version="1.1" xmlns="http://www.w3.org/2000/svg" xmlns:xlink="http://www.w3.org/1999/xlink">
<defs>
<symbol id="icon-align-left" viewBox="0 0 32 32">
<path stroke-linejoin="round" stroke-linecap="round" stroke-miterlimit="4" stroke-width="2.2857" d="M22.666 13.334h-18.666M28 8h-24M28 18.666h-24M22.666 24h-18.666"></path>
</symbol>
<symbol id="icon-arrow-narrow-right" viewBox="0 0 32 32">
<path fill="none" stroke="#eac645" style="stroke: var(--color1, #eac645)" stroke-linejoin="round" stroke-linecap="round" stroke-miterlimit="4" stroke-width="3.2" d="M5.333 16h21.334M26.667 16l-8-8M26.667 16l-8 8"></path>
</symbol>
<symbol id="icon-dump" viewBox="0 0 32 32">
<path fill="none" stroke="#fff" style="stroke: var(--color2, #fff)" stroke-linejoin="round" stroke-linecap="round" stroke-miterlimit="4" stroke-width="2.9091" d="M12 4h8M4 8h24M25.334 8l-0.935 14.026c-0.141 2.103-0.211 3.156-0.665 3.953-0.405 0.703-0.997 1.259-1.707 1.61l-0.023 0.010c-0.828 0.4-1.881 0.4-3.99 0.4h-4.026c-2.109 0-3.162 0-3.99-0.4-0.734-0.361-1.326-0.917-1.721-1.601l-0.010-0.019c-0.454-0.797-0.524-1.85-0.665-3.953l-0.935-14.026M13.334 14v6.666M18.666 14v6.666"></path>
</symbol>
<symbol id="icon-left-arrow" viewBox="0 0 32 32">
<path fill="#b4afaf" style="fill: var(--color3, #b4afaf)" d="M14.133 16.947c-0.244-0.242-0.394-0.577-0.394-0.947s0.151-0.705 0.394-0.947l0-0 6.12-6.107c0.26-0.244 0.423-0.59 0.423-0.974 0-0.737-0.598-1.335-1.335-1.335-0.381 0-0.724 0.159-0.967 0.415l-0.001 0.001-6.12 6.12c-0.723 0.724-1.17 1.723-1.17 2.827s0.447 2.103 1.17 2.827l6.12 6.12c0.241 0.239 0.573 0.387 0.94 0.387 0.737 0 1.334-0.597 1.334-1.334 0-0.37-0.151-0.705-0.394-0.947l-0-0-6.12-6.107z"></path>
</symbol>
<symbol id="icon-lock-02" viewBox="0 0 32 32">
<path stroke-linejoin="round" stroke-linecap="round" stroke-miterlimit="4" stroke-width="2.2857" d="M22.666 14.666v-4c0-3.682-2.985-6.666-6.666-6.666s-6.666 2.985-6.666 6.666v0 4M10.4 28h11.2c2.24 0 3.36 0 4.216-0.435 0.756-0.391 1.358-0.992 1.738-1.726l0.011-0.022c0.435-0.856 0.435-1.976 0.435-4.216v-0.534c0-2.24 0-3.36-0.435-4.216-0.391-0.756-0.992-1.358-1.726-1.738l-0.022-0.011c-0.856-0.434-1.976-0.434-4.216-0.434h-11.2c-2.24 0-3.36 0-4.216 0.434-0.756 0.391-1.358 0.992-1.738 1.726l-0.011 0.022c-0.435 0.857-0.435 1.977-0.435 4.217v0.533c0 2.24 0 3.36 0.435 4.216 0.391 0.756 0.992 1.358 1.726 1.738l0.022 0.011c0.856 0.435 1.976 0.435 4.216 0.435z"></path>
</symbol>
<symbol id="icon-logo" viewBox="0 0 32 32">
<path fill="#f6f6f6" style="fill: var(--color4, #f6f6f6)" d="M0 0l16.343 16.172 15.657 15.828v-32h-32z"></path>
<path fill="#f6f6f6" style="fill: var(--color4, #f6f6f6)" d="M4.457 4.228l11.943 11.829 11.257 11.485h-23.2v-23.315z"></path>
<path fill="#4f2ee8" style="fill: var(--color5, #4f2ee8)" d="M27.733 27.619l-11.944-11.829-11.256-11.485h23.2v23.315z"></path>
<path fill="#4f2ee8" style="fill: var(--color5, #4f2ee8)" d="M9.257 9.028l13.6 13.601h-13.6v-13.6z"></path>
<path fill="#f6f6f6" style="fill: var(--color4, #f6f6f6)" d="M9.257 9.028l13.6 13.601v-13.6h-13.6z"></path>
</symbol>
<symbol id="icon-mail-02" viewBox="0 0 32 32">
<path stroke-linejoin="round" stroke-linecap="round" stroke-miterlimit="4" stroke-width="2.2857" d="M28.666 24l-8.857-8M12.191 16l-8.857 8M2.666 9.334l10.887 7.621c0.881 0.617 1.322 0.926 1.802 1.045 0.423 0.106 0.866 0.106 1.289 0 0.48-0.119 0.921-0.427 1.802-1.045l10.887-7.621M9.066 26.666h13.867c2.24 0 3.36 0 4.216-0.435 0.756-0.391 1.358-0.992 1.738-1.726l0.011-0.022c0.434-0.855 0.434-1.976 0.434-4.216v-8.533c0-2.24 0-3.36-0.434-4.217-0.391-0.756-0.992-1.357-1.726-1.737l-0.022-0.011c-0.857-0.435-1.977-0.435-4.217-0.435h-13.865c-2.24 0-3.36 0-4.216 0.435-0.756 0.391-1.358 0.992-1.738 1.726l-0.010 0.022c-0.434 0.855-0.434 1.975-0.434 4.216v8.533c0 2.24 0 3.36 0.434 4.217 0.391 0.756 0.992 1.357 1.726 1.737l0.022 0.011c0.856 0.435 1.977 0.435 4.217 0.435z"></path>
</symbol>
<symbol id="icon-number-one" viewBox="0 0 32 32">
<path fill="#fff" style="fill: var(--color2, #fff)" d="M16.226 32v-24.546l-5.095 1.196v-4.342l7.488-3.323h3.5v31.015h-5.893z"></path>
</symbol>
<symbol id="icon-number-three" viewBox="0 0 32 32">
<path d="M16.791 30.208c-1.893 0-3.607-0.329-5.143-0.987-1.535-0.686-2.792-1.758-3.683-3.096l-0.020-0.031c-0.933-1.399-1.426-3.154-1.481-5.266h5.184c0.027 1.399 0.48 2.578 1.358 3.538 0.905 0.933 2.167 1.399 3.785 1.399 1.536 0 2.715-0.425 3.538-1.275s1.234-1.92 1.234-3.209c0-1.509-0.549-2.647-1.646-3.415-1.070-0.795-2.455-1.193-4.155-1.193h-2.139v-4.32h2.181c1.399 0 2.565-0.329 3.497-0.987s1.399-1.632 1.399-2.921c0-1.070-0.357-1.92-1.070-2.551-0.686-0.658-1.646-0.987-2.88-0.987-1.344 0-2.4 0.398-3.168 1.193-0.716 0.769-1.175 1.786-1.234 2.91l-0 0.011h-5.143c0.11-2.661 1.029-4.759 2.757-6.295 1.755-1.536 4.018-2.304 6.789-2.304 1.975 0 3.634 0.357 4.978 1.070 1.371 0.686 2.4 1.605 3.086 2.757 0.713 1.152 1.070 2.427 1.070 3.826 0 1.618-0.453 2.99-1.358 4.114-0.878 1.097-1.975 1.838-3.291 2.222 1.61 0.311 2.98 1.171 3.939 2.373l0.010 0.013c1.015 1.234 1.522 2.798 1.522 4.69 0 1.591-0.384 3.045-1.152 4.361s-1.893 2.373-3.374 3.168c-1.454 0.795-3.25 1.193-5.39 1.193z"></path>
</symbol>
<symbol id="icon-number-two" viewBox="0 0 32 32">
<path d="M5.952 32v-4.121c1.89-1.566 3.722-3.116 5.494-4.652 1.723-1.462 3.285-2.953 4.755-4.531l0.030-0.033c1.418-1.506 2.54-2.969 3.367-4.386 0.857-1.447 1.285-2.85 1.285-4.209 0-1.27-0.354-2.393-1.063-3.367-0.679-0.975-1.817-1.462-3.412-1.462-1.625 0-2.85 0.532-3.678 1.595s-1.241 2.348-1.241 3.855h-5.494c0.059-2.274 0.561-4.165 1.506-5.671 0.898-1.483 2.182-2.653 3.714-3.389l0.052-0.023c1.566-0.768 3.323-1.152 5.273-1.152 3.161 0 5.612 0.871 7.355 2.614 1.772 1.713 2.658 3.943 2.658 6.69 0 1.713-0.399 3.382-1.196 5.007-0.869 1.791-1.889 3.335-3.082 4.726l0.024-0.029c-1.301 1.537-2.648 2.926-4.082 4.22l-0.038 0.034c-1.477 1.3-2.91 2.511-4.298 3.633h13.425v4.652h-21.356z"></path>
</symbol>
<symbol id="icon-right-arrow" viewBox="0 0 32 32">
<path d="M17.867 16.947c0.244-0.242 0.394-0.577 0.394-0.947s-0.151-0.705-0.394-0.947l-0-0-6.12-6.107c-0.243-0.242-0.394-0.577-0.394-0.947 0-0.737 0.597-1.334 1.334-1.334 0.367 0 0.699 0.148 0.94 0.388l6.12 6.12c0.723 0.724 1.17 1.723 1.17 2.827s-0.447 2.103-1.17 2.827l-6.12 6.12c-0.241 0.239-0.573 0.387-0.94 0.387-0.737 0-1.334-0.597-1.334-1.334 0-0.37 0.151-0.705 0.394-0.947l0-0 6.12-6.107z"></path>
</symbol>
<symbol id="icon-three-dots" viewBox="0 0 32 32">
<path d="M5.366 18.757c-0.985 0-1.804-0.313-2.462-0.935-0.578-0.586-0.936-1.392-0.936-2.281 0-0.011 0-0.023 0-0.034v0.002c0-0.918 0.313-1.691 0.935-2.314 0.657-0.657 1.477-0.985 2.462-0.985s1.79 0.327 2.412 0.985c0.623 0.623 0.935 1.396 0.935 2.314 0 0.886-0.313 1.657-0.935 2.314-0.623 0.623-1.428 0.935-2.412 0.935zM16.039 18.757c-0.985 0-1.804-0.313-2.462-0.935-0.578-0.586-0.936-1.392-0.936-2.281 0-0.011 0-0.023 0-0.034v0.002c0-0.918 0.313-1.691 0.935-2.314 0.657-0.657 1.477-0.985 2.462-0.985s1.79 0.327 2.412 0.985c0.623 0.623 0.935 1.396 0.935 2.314 0 0.886-0.313 1.657-0.935 2.314-0.623 0.623-1.428 0.935-2.412 0.935zM26.713 18.757c-0.985 0-1.807-0.313-2.462-0.935-0.578-0.586-0.936-1.392-0.936-2.281 0-0.011 0-0.023 0-0.034v0.002c0-0.918 0.313-1.691 0.935-2.314 0.655-0.657 1.477-0.985 2.462-0.985s1.787 0.327 2.412 0.985c0.623 0.623 0.935 1.396 0.935 2.314 0 0.886-0.313 1.657-0.935 2.314-0.625 0.623-1.428 0.935-2.412 0.935z"></path>
</symbol>
<symbol id="icon-user-fill" viewBox="0 0 32 32">
<path fill="#4f2ee8" style="fill: var(--color5, #4f2ee8)" d="M5.334 29.334c0.107-5.81 4.841-10.478 10.666-10.478s10.56 4.669 10.666 10.468l0 0.010h-21.332zM16 17.334c-0.001 0-0.001 0-0.002 0-4.417 0-7.998-3.581-7.998-7.998 0-0.001 0-0.001 0-0.002v0c0-0.001 0-0.001 0-0.002 0-4.417 3.581-7.998 7.998-7.998 0.001 0 0.001 0 0.002 0h-0c0 0 0.001 0 0.002 0 4.417 0 7.998 3.581 7.998 7.998 0 0.001 0 0.001 0 0.002v-0c0 0.001 0 0.001 0 0.002 0 4.417-3.581 7.998-7.998 7.998-0.001 0-0.001 0-0.002 0h0z"></path>
</symbol>
<symbol id="icon-Vector" viewBox="0 0 32 32">
<path fill="#fff" style="fill: var(--color2, #fff)" d="M1.69 9.067h28.623l-12.866 14.543c-0.352 0.41-0.868 0.671-1.445 0.678h-0.001c-0.578-0.008-1.093-0.269-1.442-0.676l-0.002-0.003-12.866-14.543z"></path>
</symbol>
<symbol id="icon-Vector-2" viewBox="0 0 32 32">
<path fill="#fff" style="fill: var(--color2, #fff)" d="M0.632 21.389l14.147-14.189c0.168-0.168 0.35-0.286 0.547-0.357s0.408-0.106 0.632-0.106 0.435 0.035 0.632 0.106c0.215 0.081 0.398 0.202 0.547 0.357l0 0 14.189 14.189c0.392 0.392 0.589 0.884 0.589 1.474s-0.211 1.095-0.632 1.516c-0.369 0.389-0.89 0.632-1.468 0.632-0.002 0-0.004 0-0.006 0h0c-0.002 0-0.004 0-0.006 0-0.578 0-1.099-0.242-1.467-0.631l-0.001-0.001-12.379-12.379-12.379 12.379c-0.392 0.392-0.876 0.589-1.452 0.589s-1.075-0.211-1.496-0.632c-0.389-0.369-0.632-0.89-0.632-1.468 0-0.002 0-0.004 0-0.006v0c0-0.002 0-0.004 0-0.006 0-0.578 0.242-1.099 0.631-1.467l0.001-0.001z"></path>
</symbol>
<symbol id="icon-Vector-3" viewBox="0 0 32 32">
<path fill="#4f2ee8" style="fill: var(--color5, #4f2ee8)" d="M15.055 17.868c0.241 0.243 0.576 0.394 0.945 0.394s0.704-0.15 0.945-0.393l0-0 6.109-6.121c0.241-0.243 0.576-0.393 0.945-0.393 0.736 0 1.333 0.597 1.333 1.333 0 0.367-0.148 0.699-0.388 0.94l-6.119 6.121c-0.724 0.723-1.723 1.169-2.826 1.169s-2.103-0.447-2.826-1.169l-6.121-6.121c-0.239-0.241-0.387-0.573-0.387-0.94 0-0.737 0.597-1.334 1.334-1.334 0.37 0 0.705 0.151 0.947 0.394l0 0 6.106 6.119z"></path>
</symbol>
<symbol id="icon-x-close" viewBox="0 0 32 32">
<path stroke-linejoin="round" stroke-linecap="round" stroke-miterlimit="4" stroke-width="3.4286" d="M24 8l-16 16M8 8l16 16"></path>
</symbol>
</defs>
</svg>
